<?xml version="1.0" encoding="UTF-8"?>
<svg width="191px" height="93px" viewBox="0 0 191 93" version="1.1" xmlns="http://www.w3.org/2000/svg" xmlns:xlink="http://www.w3.org/1999/xlink">
    <title>app_icon</title>
    <defs>
        <linearGradient x1="50%" y1="100%" x2="50%" y2="8.34557487%" id="linearGradient-1">
            <stop stop-color="#FFFFFF" stop-opacity="0" offset="0%"></stop>
            <stop stop-color="#FE8A34" offset="100%"></stop>
        </linearGradient>
    </defs>
    <g id="页面-1" stroke="none" stroke-width="1" fill="none" fill-rule="evenodd">
        <g id="画板" transform="translate(-1261.000000, -2071.000000)">
            <g id="app_icon" transform="translate(1263.000000, 2073.000000)">
                <path d="M0,31.6418773 C15.4156595,41.9317062 29.6415173,42.6870649 42.6775732,33.9079535 C62.2316571,20.7392864 72.8142085,4.21198706 96.2324233,11.0253573 C119.650638,17.8387275 130.009348,14.2373309 140.228776,3.85098872 C150.448204,-6.5353535 167.952194,7.82110585 175.961655,3.85098872 C181.301296,1.20424397 185.095566,0.394861792 187.344464,1.42284219" id="路径-5" stroke="#FE8A34" stroke-width="3" stroke-linecap="round"></path>
                <path d="M188,90.4436035 L0,90.4436035 L0,31.6418773 C15.4156595,41.9317062 29.6415173,42.6870649 42.6775732,33.9079535 C62.2316571,20.7392864 72.8142085,4.21198706 96.2324233,11.0253573 C119.650638,17.8387275 130.009348,14.2373309 140.228776,3.85098872 C150.448204,-6.5353535 167.952194,7.82110585 175.961655,3.85098872 C181.301296,1.20424397 185.095566,0.394861792 187.344464,1.42284219 L188,90.4436035 Z" id="路径-5" fill="url(#linearGradient-1)" opacity="0.323916481"></path>
            </g>
        </g>
    </g>
</svg>