<?xml version="1.0" encoding="UTF-8"?>
<svg width="192px" height="92px" viewBox="0 0 192 92" version="1.1" xmlns="http://www.w3.org/2000/svg" xmlns:xlink="http://www.w3.org/1999/xlink">
    <title>day_icon</title>
    <defs>
        <linearGradient x1="50%" y1="100%" x2="50%" y2="8.34557487%" id="linearGradient-1">
            <stop stop-color="#FFFFFF" stop-opacity="0" offset="0%"></stop>
            <stop stop-color="#F71D3C" offset="100%"></stop>
        </linearGradient>
    </defs>
    <g id="页面-1" stroke="none" stroke-width="1" fill="none" fill-rule="evenodd">
        <g id="画板" transform="translate(-479.000000, -2072.000000)">
            <g id="day_icon" transform="translate(481.000000, 2074.000000)">
                <path d="M187.50003,0.000958577365 L187.5,89.4433336 L-4.26325641e-14,89.4436869 L-4.26325641e-14,34.507331 C9.76112456,20.6532573 19.295931,15.5401265 28.6044194,19.1679388 C42.567152,24.6096572 51.6037781,37.3323771 63.6449458,26.2730067 C75.6861136,15.2136362 79.390622,7.95273836 95.4094072,7.95273836 C111.428192,7.95273836 119.895523,28.5294579 133.346478,23.8486984 C146.797432,19.1679388 149.689842,13.5882127 155.741094,13.5882127 C161.754572,13.5882127 172.067811,16.3973016 187.50003,0.000958577365 Z" id="形状结合" fill="url(#linearGradient-1)" opacity="0.323916481"></path>
                <path d="M0,34.817639 C9.76112456,20.9635652 19.295931,15.8504345 28.6044194,19.4782468 C42.567152,24.9199652 51.6037781,37.6426851 63.6449458,26.5833146 C75.6861136,15.5239442 79.390622,8.26304634 95.4094072,8.26304634 C111.428192,8.26304634 119.895523,28.8397659 133.346478,24.1590063 C146.797432,19.4782468 149.689842,13.8985207 155.741094,13.8985207 C161.792347,13.8985207 172.197549,16.7430118 187.791455,-2.18491891e-13" id="路径-4" stroke="#F71D3C" stroke-width="3" stroke-linecap="round"></path>
            </g>
        </g>
    </g>
</svg>