<?xml version="1.0" encoding="UTF-8"?>
<svg width="19px" height="14px" viewBox="0 0 19 14" version="1.1" xmlns="http://www.w3.org/2000/svg" xmlns:xlink="http://www.w3.org/1999/xlink">
    <title>email_icon</title>
    <g id="页面-1" stroke="none" stroke-width="1" fill="none" fill-rule="evenodd">
        <g id="画板" transform="translate(-1103.000000, -3901.000000)" fill="#5E5E5E">
            <g id="编组-7" transform="translate(1103.000000, 3901.000000)">
                <g id="email_icon">
                    <path d="M16.8071232,0.0102711397 L2.09340533,0.0102711397 C0.940464154,0.0102711397 0.00190716912,0.948828125 0.00190716912,2.1017693 L0.00190716912,11.8220358 C0.00190716912,12.974977 0.940464154,13.913534 2.09340533,13.913534 L16.8071232,13.913534 C17.9600643,13.913534 18.8986213,12.974977 18.8986213,11.8220358 L18.8986213,2.1017693 C18.8986213,0.948828125 17.9600643,0.0102711397 16.8071232,0.0102711397 Z M17.643727,11.8220358 C17.643727,12.2821691 17.2672564,12.6586397 16.8071232,12.6586397 L2.09340533,12.6586397 C1.63327206,12.6586397 1.25680147,12.2821691 1.25680147,11.8220358 L1.25680147,2.1017693 C1.25680147,1.64163603 1.63327206,1.26516544 2.09340533,1.26516544 L16.8071232,1.26516544 C17.2672564,1.26516544 17.643727,1.64163603 17.643727,2.1017693 L17.643727,11.8220358 Z" id="形状"></path>
                    <path d="M15.7116958,3.33315717 L9.45025276,7.28347886 L3.18880974,3.33315717 C2.89600184,3.14754136 2.50907629,3.23642004 2.3234375,3.52922794 C2.13782169,3.82203585 2.22670037,4.2089614 2.51950827,4.39460018 L9.10774357,8.55147059 C9.21231618,8.61684283 9.32734375,8.64820772 9.44237132,8.64820772 L9.46328125,8.64820772 C9.57830882,8.64820772 9.69335938,8.61684283 9.79790901,8.55147059 L16.3861443,4.39460018 C16.6789522,4.20898438 16.7678309,3.82205882 16.5822151,3.52922794 C16.3913603,3.23380055 16.0044347,3.14754136 15.7116268,3.33315717 L15.7116958,3.33315717 Z" id="路径"></path>
                </g>
            </g>
        </g>
    </g>
</svg>