<?xml version="1.0" encoding="UTF-8"?>
<svg width="366px" height="200px" viewBox="0 0 366 200" version="1.1" xmlns="http://www.w3.org/2000/svg" xmlns:xlink="http://www.w3.org/1999/xlink">
    <title>js_bg</title>
    <defs>
        <rect id="path-1" x="0" y="0" width="366" height="200"></rect>
    </defs>
    <g id="页面-1" stroke="none" stroke-width="1" fill="none" fill-rule="evenodd">
        <g id="画板" transform="translate(-778.000000, -1511.000000)">
            <g id="js_bg" transform="translate(778.000000, 1511.000000)">
                <g id="编组-31">
                    <g id="矩形备份-6">
                        <mask id="mask-2" fill="white">
                            <use xlink:href="#path-1"></use>
                        </mask>
                        <use id="矩形备份-5" fill="#E44D26" xlink:href="#path-1"></use>
                        <g id="logo-javascript-2" mask="url(#mask-2)">
                            <g transform="translate(33.000000, 34.000000)" id="logo-javascript">
                                <g>
                                    <polygon id="形状" fill="#F16529" fill-rule="nonzero" points="0 0 0 133 133 133 133 0"></polygon>
                                    <g id="编组-23" transform="translate(23.000000, 36.000000)" fill="#FFFFFF">
                                        <path d="M37.465625,42.6876562 C37.465625,55.634375 29.818125,61.9459375 18.7476563,61.9459375 C8.74890625,61.9459375 2.945,56.7684375 1.3500312e-13,50.5192187 L10.176875,44.3590625 C12.1392188,47.8414062 13.6295313,50.7864062 17.9134375,50.7864062 C21.4759375,50.7864062 24.403125,49.1803125 24.403125,42.9310937 L24.403125,1.12515625 L37.465625,1.12515625 L37.465625,42.6876562 Z" id="路径"></path>
                                        <path d="M66.9601563,61.6490625 C55.3553125,61.6490625 47.85625,56.4121875 44.1957813,49.1803125 L54.3875,43.2814062 C57.059375,47.6573437 60.5476563,50.5726562 66.7078125,50.5726562 C71.8853125,50.5726562 74.8926563,48.2807812 74.8926563,44.709375 C74.8926563,40.4254687 71.79625,38.9084375 66.0814063,36.396875 L62.9582813,35.055 C53.9392188,31.219375 47.9601563,26.398125 47.9601563,16.2182812 C47.9601563,6.8459375 55.1,-4.61852778e-14 66.2595313,-4.61852778e-14 C74.206875,-4.61852778e-14 79.9157813,2.47 84.0275,9.701875 L74.278125,15.9689062 C72.1346875,12.1303125 69.825,10.6251562 66.2446875,10.6251562 C62.5842188,10.6251562 60.2626563,12.9467187 60.2626563,15.9689062 C60.2626563,19.7184375 62.5842188,21.2354687 67.9398438,23.5570312 L71.0629688,24.8959375 C81.688125,29.45 87.670157,34.0990625 87.670157,44.5371875 C87.673125,55.78875 78.8351563,61.6490625 66.9601563,61.6490625 Z" id="路径"></path>
                                    </g>
                                </g>
                            </g>
                        </g>
                    </g>
                </g>
            </g>
        </g>
    </g>
</svg>