<?xml version="1.0" encoding="UTF-8"?>
<svg width="89px" height="30px" viewBox="0 0 89 30" version="1.1" xmlns="http://www.w3.org/2000/svg" xmlns:xlink="http://www.w3.org/1999/xlink">
    <title>Saito Horizontal Primary Logo RGB</title>
    <defs>
        <linearGradient x1="-3.86036202%" y1="50.1334379%" x2="60.4913188%" y2="47.8703317%" id="linearGradient-1">
            <stop stop-color="#FF8235" offset="2%"></stop>
            <stop stop-color="#F71F3D" offset="98%"></stop>
        </linearGradient>
        <linearGradient x1="51.6242793%" y1="68.0367505%" x2="40.565167%" y2="31.0444874%" id="linearGradient-2">
            <stop stop-color="#FF8235" offset="0%"></stop>
            <stop stop-color="#FC5B38" offset="42%"></stop>
            <stop stop-color="#F71F3D" offset="100%"></stop>
        </linearGradient>
        <linearGradient x1="49.602683%" y1="88.9365575%" x2="53.0284384%" y2="14.8855954%" id="linearGradient-3">
            <stop stop-color="#FF8235" offset="20%"></stop>
            <stop stop-color="#F71F3D" offset="100%"></stop>
        </linearGradient>
        <linearGradient x1="36.9236444%" y1="37.6421281%" x2="62.0066396%" y2="75.3626786%" id="linearGradient-4">
            <stop stop-color="#FF8235" offset="0%"></stop>
            <stop stop-color="#F71F3D" offset="100%"></stop>
        </linearGradient>
        <linearGradient x1="35.1498127%" y1="8.4290704%" x2="70.1685393%" y2="77.649427%" id="linearGradient-5">
            <stop stop-color="#FF8235" offset="0%"></stop>
            <stop stop-color="#FC5A38" offset="30%"></stop>
            <stop stop-color="#F93A3B" offset="59%"></stop>
            <stop stop-color="#F8263C" offset="83%"></stop>
            <stop stop-color="#F71F3D" offset="100%"></stop>
        </linearGradient>
        <linearGradient x1="73.6579823%" y1="100.53467%" x2="49.0634272%" y2="48.0033417%" id="linearGradient-6">
            <stop stop-color="#FF8235" offset="20%"></stop>
            <stop stop-color="#F71F3D" offset="100%"></stop>
        </linearGradient>
    </defs>
    <g id="页面-1" stroke="none" stroke-width="1" fill="none" fill-rule="evenodd">
        <g id="画板" transform="translate(-381.000000, -3777.000000)" fill-rule="nonzero">
            <g id="Saito-Horizontal-Primary-Logo-RGB" transform="translate(381.000000, 3777.000000)">
                <path d="M37.884375,17.8125 L34.7695312,19.6101563 C35.540625,22.1390625 38.0132812,23.7984375 41.2265625,23.7984375 C44.8804688,23.7984375 47.7609375,21.6890625 47.7609375,18.1101563 C47.7609375,14.7445313 45.2929688,13.5117188 42.4828125,12.8320313 L41.859375,12.684375 C39.9539063,12.215625 38.7070312,11.765625 38.7070312,10.6054688 C38.7070312,9.66796875 39.6046875,9.05625 40.8867188,9.05625 C42.4710938,9.05625 43.4015625,9.94921875 43.659375,11.38125 L43.9453125,11.4773438 L46.7296875,9.871875 C45.9890625,7.790625 44.0671875,6.37265625 40.9335938,6.37265625 C37.6523438,6.37265625 35.1984375,8.04375 35.1984375,10.8257813 C35.1984375,12.8484375 36.384375,14.034375 38.19375,14.8101563 C38.8551037,15.0804089 39.5369514,15.297503 40.2328125,15.459375 C40.6570313,15.5578125 41.0671875,15.65625 41.446875,15.7664063 C43.0078125,16.2046875 44.1304688,16.809375 44.1304688,18.3632813 C44.1304688,19.9171875 42.9914063,20.7585938 41.41875,20.7585938 C39.7148438,20.7585938 38.3953125,19.7695313 38.1375,17.8992188 L37.884375,17.8125 Z" id="路径" fill="#FFFFFF"></path>
                <path d="M60.7898438,20.990625 C60.6404418,21.0475382 60.4807146,21.0722959 60.3210938,21.0632812 C59.7890625,21.0632812 59.4492188,20.7 59.4492188,19.9242188 L59.4492188,15.5929688 C59.4492188,12.7382812 57.271875,11.2125 54.2929688,11.2125 C51.7757813,11.2125 49.790625,12.4710937 49.2820313,14.9390625 L49.4039063,15.084375 L52.2585938,15.31875 C52.4039063,14.3039063 53.1070313,13.65 54.24375,13.65 C55.5023438,13.65 56.2289063,14.2804688 56.2289063,15.3914063 L56.2289063,15.9375 L52.96875,16.2703125 C50.3554688,16.5375 48.7101562,17.8921875 48.7101562,20.11875 C48.7101562,22.4179688 50.5007812,23.7984375 52.55625,23.7984375 C54.178125,23.7984375 55.2914062,23.1445312 56.3578125,22.0546875 L56.5265625,22.0546875 C57.0820312,23.2898437 58.1460937,23.6953125 59.2382812,23.6953125 C59.8035712,23.7083808 60.3672116,23.6292178 60.9070313,23.4609375 L60.9070313,21.1335937 L60.7898438,20.990625 Z M56.25,19.4648438 C55.378125,20.578125 54.5554688,21.2320312 53.3460938,21.2320312 C52.5,21.2320312 51.8460938,20.746875 51.8460938,19.9242188 C51.8460938,19.1015625 52.4507813,18.54375 53.5875,18.4007813 L56.25,18.0609375 L56.25,19.4648438 Z" id="形状" fill="#FFFFFF"></path>
                <rect id="矩形" fill="#FFFFFF" x="62.04375" y="11.4539062" width="3.3890625" height="12.1007813"></rect>
                <path d="M63.75,6.20156109 C62.9563462,6.20061429 62.2403134,6.67797006 61.935938,7.41093856 C61.6315626,8.14390705 61.7988199,8.98806139 62.3596827,9.5495951 C62.9205455,10.1111288 63.7644993,10.2793951 64.4978312,9.9758962 C65.231163,9.67239725 65.709375,8.95693558 65.709375,8.16328125 C65.6967457,7.08603901 64.8272264,6.21547959 63.75,6.20156109 Z" id="路径" fill="#FFFFFF"></path>
                <path d="M72.0679688,14.2617188 L72.0679688,19.8304688 C72.0679688,20.6273438 72.553125,21.0398437 73.3734375,21.0398437 C73.7043402,21.0309676 74.031784,20.9700662 74.34375,20.859375 L74.5125,20.9554687 L74.5125,23.5335937 C73.8159113,23.7015173 73.1008126,23.7802727 72.384375,23.7679687 C70.228125,23.7679687 68.7023438,22.6523438 68.7023438,20.0882812 L68.7023438,14.2289062 L66.5625,14.2289062 L66.5625,11.4164063 L68.7140625,11.4164063 L68.7140625,8.44921875 L71.7609375,6.68671875 L72.0726562,6.68671875 L72.0726562,11.4539063 L74.6390625,11.4539063 L74.6390625,14.2664063 L72.0679688,14.2617188 Z" id="路径" fill="#FFFFFF"></path>
                <path d="M81.69375,11.2125 C77.8453125,11.2125 75.1101563,13.8984375 75.1101563,17.503125 C75.1101563,21.1078125 77.8453125,23.7984375 81.69375,23.7984375 C85.5421875,23.7984375 88.3007812,21.1101563 88.3007812,17.503125 C88.3007812,13.8960938 85.565625,11.2125 81.69375,11.2125 Z M81.69375,20.86875 C79.8539062,20.86875 78.4992187,19.6101563 78.4992187,17.503125 C78.4992187,15.3960938 79.8539062,14.1398438 81.69375,14.1398438 C83.5335937,14.1398438 84.9117188,15.3984375 84.9117188,17.503125 C84.9117188,19.6078125 83.53125,20.859375 81.69375,20.859375 L81.69375,20.86875 Z" id="形状" fill="#FFFFFF"></path>
                <path d="M13.5140625,22.6148437 L26.203125,22.6148437 C26.1822865,22.6372982 26.1586566,22.6569898 26.1328125,22.6734375 L13.5140625,29.9484375 L13.5140625,22.6148437 Z" id="路径" fill="url(#linearGradient-1)"></path>
                <path d="M6.4125,11.5828125 L0.06796875,22.4554688 C0.0655715747,22.4281775 0.0655715747,22.4007287 0.06796875,22.3734375 L0.06796875,7.91484375 L6.4125,11.5828125 Z" id="路径" fill="url(#linearGradient-2)"></path>
                <polygon id="路径" fill="url(#linearGradient-3)" points="12.8414063 15.2953125 12.8414063 29.9484375 0.59765625 22.8773437 6.99375 11.9203125"></polygon>
                <path d="M19.35,11.1515625 L13.1789062,14.7140625 L0.28828125,7.27734375 L12.7757812,0.07265625 L19.2820312,11.0695312 C19.2987865,11.1012707 19.3219279,11.1291999 19.35,11.1515625 L19.35,11.1515625 Z" id="路径" fill="url(#linearGradient-4)"></path>
                <path d="M26.0601562,7.27734375 L19.9007813,10.8328125 C19.8932971,10.7953691 19.8789973,10.7596194 19.8585937,10.7273437 L13.5445313,0.0515625 L26.0601562,7.27734375 Z" id="路径" fill="url(#linearGradient-5)"></path>
                <polygon id="路径" fill="url(#linearGradient-6)" points="26.2992188 7.91484375 26.2992188 21.9328125 13.5140625 21.9421875 13.5140625 15.2953125"></polygon>
            </g>
        </g>
    </g>
</svg>