<?xml version="1.0" encoding="UTF-8"?>
<svg width="366px" height="200px" viewBox="0 0 366 200" version="1.1" xmlns="http://www.w3.org/2000/svg" xmlns:xlink="http://www.w3.org/1999/xlink">
    <title>provably_bg</title>
    <defs>
        <rect id="path-1" x="0" y="0" width="366" height="200"></rect>
    </defs>
    <g id="页面-1" stroke="none" stroke-width="1" fill="none" fill-rule="evenodd">
        <g id="画板" transform="translate(-1194.000000, -1261.000000)">
            <g id="provably_bg" transform="translate(1194.000000, 1261.000000)">
                <g id="矩形-4">
                    <mask id="mask-2" fill="white">
                        <use xlink:href="#path-1"></use>
                    </mask>
                    <use id="矩形" fill="#76C3FF" xlink:href="#path-1"></use>
                    <g id="编组-14" mask="url(#mask-2)">
                        <g transform="translate(-28.000000, 11.000000)">
                            <g id="Group" stroke="none" stroke-width="1" fill="none" fill-rule="evenodd" transform="translate(126.716998, 148.722892)">
                                <path d="M32.5446498,34.5338271 C34.2417061,32.8209652 34.2417061,30.0605929 32.5446498,28.3477311 C30.8323104,26.6494056 28.0708932,26.6494056 26.3585538,28.3477311 C24.6614976,30.0605929 24.6614976,32.8209652 26.3585538,34.5338271 C28.0708932,36.2321525 30.8323104,36.2321525 32.5446498,34.5338271 L32.5446498,34.5338271 Z" id="Path" fill="#230545" fill-rule="nonzero"></path>
                                <polygon id="Path" fill="#230545" fill-rule="nonzero" points="0.0373218462 0.440320615 0.0373218462 6.38615723 28.0566978 34.0509757 31.0890978 31.0162431"></polygon>
                            </g>
                            <path d="M130.99968,180.709452 L134.881152,180.709452 C136.620814,180.702645 138.29117,181.390849 139.521087,182.621204 C140.751004,183.851559 141.438613,185.52216 141.431136,187.261819 L141.431136,191.630808 C141.424282,193.370064 142.112167,195.040063 143.342016,196.269912 C144.571865,197.499761 146.241864,198.187646 147.98112,198.180792 L153.43944,198.180792 C155.179508,198.17393 156.850221,198.862453 158.080206,200.093315 C159.310191,201.324176 159.997525,202.995379 159.989424,204.735441 C159.98257,206.474697 160.670455,208.144696 161.900304,209.374545 C163.130153,210.604394 164.800152,211.292279 166.539408,211.285476 L166.782,211.285476 C168.521662,211.292283 170.192018,210.604079 171.421935,209.373724 C172.651852,208.143369 173.339461,206.472768 173.331984,204.733109 C173.324507,202.993449 174.012116,201.322848 175.242033,200.092493 C176.47195,198.862138 178.142306,198.173934 179.881968,198.180792 L206.930976,198.180792 C208.670232,198.187646 210.340231,197.499761 211.57008,196.269912 C212.799929,195.040063 213.487814,193.370064 213.481011,191.630808 L213.481011,181.315983 M33.3563396,198.787272 L33.3563396,217.959038 C33.3489227,219.698697 34.0365319,221.369298 35.2664491,222.599653 C36.4963663,223.830008 38.1667222,224.518212 39.906384,224.511405 L40.998048,224.511405 C42.7377098,224.518212 44.4080657,223.830008 45.6379829,222.599653 C46.8679001,221.369298 47.5555093,219.698697 47.548032,217.959038 C47.5405547,216.219379 48.2281639,214.548778 49.4580811,213.318423 C50.6879983,212.088067 52.3583542,211.399863 54.098016,211.406721 L80.783136,211.406721" id="Shape" stroke="#230545" stroke-width="3.274992" fill="none"></path>
                            <path d="M200.866297,177.919695 C200.881131,174.440376 199.505912,171.099175 197.046078,168.638464 C194.586243,166.177754 191.245532,164.801346 187.766208,164.81496 L159.382944,164.81496 C155.90362,164.801346 152.562909,166.177754 150.103074,168.638464 C147.64324,171.099175 146.268021,174.440376 146.282855,177.919695 C146.282855,180.830799 147.253344,183.378015 148.708896,185.563675 L198.31896,185.563675 C200.017104,183.499311 200.866297,180.830799 200.866297,177.919695 L200.866297,177.919695 Z" id="Path" stroke="none" fill="#7CB5E0" fill-rule="nonzero"></path>
                            <path d="M148.830192,185.563675 C151.256112,188.838667 155.016288,191.021995 159.50424,191.021995 L187.887504,191.021995 C192.25416,191.021995 196.135632,188.838667 198.561552,185.563675 L148.830192,185.563675 Z" id="Path" stroke="none" fill="#4495D4" fill-rule="nonzero"></path>
                            <path d="M156.229248,180.103043 C155.649432,180.105517 155.092644,179.876289 154.682649,179.466294 C154.272654,179.056298 154.043426,178.49951 154.0459,177.919695 C154.0459,176.706735 155.016288,175.734034 156.229248,175.734034 C157.442208,175.734034 158.412576,176.706735 158.412576,177.919695 C158.29128,179.132655 157.320912,180.103043 156.229248,180.103043 Z M164.841264,180.103043 C164.261448,180.105517 163.70466,179.876289 163.294665,179.466294 C162.88467,179.056298 162.655442,178.49951 162.657916,177.919695 C162.657916,176.706735 163.628304,175.734034 164.841264,175.734034 C166.054224,175.734034 167.024592,176.706735 167.024592,177.919695 C167.145888,179.132655 166.054224,180.103043 164.841264,180.103043 L164.841264,180.103043 Z" id="Shape" stroke="none" fill="#FFFFFF" fill-rule="nonzero"></path>
                            <ellipse id="Oval" stroke="none" fill="#357DB6" fill-rule="nonzero" cx="188.493984" cy="178.283583" rx="12.73608" ry="12.7407452"></ellipse>
                            <ellipse id="Oval" stroke="none" fill="#4495D4" fill-rule="nonzero" cx="188.493984" cy="178.283583" rx="9.339792" ry="9.34212462"></ellipse>
                            <polygon id="Path" stroke="none" fill="#230545" fill-rule="nonzero" points="187.887504 175.85533 209.720784 175.85533 209.720784 180.224319 187.887504 180.224319"></polygon>
                            <ellipse id="Oval" stroke="none" fill="#230545" fill-rule="nonzero" transform="translate(188.902875, 177.907348) rotate(-45.000000) translate(-188.902875, -177.907348) " cx="188.902875" cy="177.907348" rx="4.366656" ry="4.36898862"></ellipse>
                            <path d="M41.604528,85.70436 L22.43976,85.70436 C20.6996921,85.6975485 19.0289791,86.386072 17.7989938,87.6169333 C16.5690086,88.8477946 15.8816749,90.5189974 15.8897052,92.25906 L15.8897052,118.465994 C15.8822987,120.205653 16.5699079,121.876254 17.7998251,123.106609 C19.0297423,124.336964 20.7000982,125.025168 22.43976,125.01831 L42.089712,125.01831 C43.8293738,125.011453 45.4997297,125.699657 46.7296469,126.930012 C47.9595641,128.160367 48.6471733,129.830968 48.6397564,131.570627 L48.6397564,133.268771" id="Path" stroke="#230545" stroke-width="3.274992" fill="none"></path>
                            <ellipse id="Oval" stroke="none" fill="#230545" fill-rule="nonzero" cx="48.033216" cy="139.821088" rx="10.91664" ry="10.9189726"></ellipse>
                            <g id="Group" stroke="none" stroke-width="1" fill="none" fill-rule="evenodd" transform="translate(20.784690, 133.078584)">
                                <path d="M41.3188615,5.16332308 C40.7123815,2.13092308 37.9225735,0.190187077 35.0114695,0.190187077 L6.14302154,0.190187077 C9.66060554,0.190187077 12.5717095,3.10129108 12.5717095,6.74250369 C12.5717095,10.3813837 9.66060554,13.2924877 6.14302154,13.2924877 L35.1327655,13.2924877 C37.1112853,13.2237322 38.9543227,12.2700235 40.1531886,10.6945908 C41.3520545,9.11915809 41.7799823,7.08858545 41.3188615,5.16332308 L41.3188615,5.16332308 Z" id="Path" fill="#357DB6" fill-rule="nonzero"></path>
                                <path d="M8.81153354,0.190187077 L6.50690954,0.190187077 C3.47450954,0.190187077 0.805997538,2.25221908 0.199517538,5.16332308 C-0.770850462,9.41101569 2.38284554,13.2924877 6.38561354,13.2924877 L8.93282954,13.2924877 C12.9355975,13.2924877 16.0892935,9.53231169 15.1189255,5.16332308 C14.5124455,2.13092308 11.8439335,0.190187077 8.81153354,0.190187077 Z" id="Path" fill="#4495D4" fill-rule="nonzero"></path>
                            </g>
                            <g id="Group" stroke="none" stroke-width="1" fill="none" fill-rule="evenodd" transform="translate(12.418844, 137.059815)">
                                <path d="M10.5060997,63.7894892 L43.9837957,63.7894892 C46.6877844,63.7938341 49.282241,62.7214424 51.1940334,60.8092123 C53.1058258,58.8969822 54.1776235,56.3022803 54.1726814,53.5982926 L54.1726814,10.5265495 C54.1782444,7.82215804 53.1067208,5.22685576 51.1948609,3.31412047 C49.283001,1.40138518 46.6881895,0.328673615 43.9837957,0.333007149 L10.5060997,0.333007149 L10.5060997,63.7918218 L10.5060997,63.7894892 Z" id="Path" fill="#230545" fill-rule="nonzero"></path>
                                <path d="M22.6357214,53.7195886 L22.6357214,10.6478455 C22.6412844,7.94345404 21.5697608,5.34815176 19.6579009,3.43541647 C17.746041,1.52268118 15.1512295,0.449969615 12.4468357,0.454303149 L10.8699877,0.454303149 C8.16559393,0.449969615 5.57078242,1.52268118 3.65892253,3.43541647 C1.74706263,5.34815176 0.675539008,7.94345404 0.681101971,10.6478455 L0.681101971,53.7195886 C0.675539008,56.4239801 1.74706263,59.0192824 3.65892253,60.9320177 C5.57078242,62.844753 8.16559393,63.9174645 10.8699877,63.913131 L12.4468357,63.913131 C18.0264517,63.7918218 22.6357214,59.3015372 22.6357214,53.7195886 L22.6357214,53.7195886 Z" id="Path" fill="#544463" fill-rule="nonzero"></path>
                            </g>
                            <path d="M127.482096,205.339589 L71.322048,205.339589 C68.6180592,205.343933 66.0236027,204.271542 64.1118103,202.359312 C62.2000179,200.447082 61.1282202,197.85238 61.1331668,195.148392 L61.1331668,145.522 C61.1282202,142.818012 62.2000179,140.22331 64.1118103,138.31108 C66.0236027,136.39885 68.6180592,135.326458 71.322048,135.33079 L127.482096,135.33079 C130.18649,135.326456 132.781301,136.399168 134.693161,138.311903 C136.605021,140.224639 137.676545,142.819941 137.670982,145.524332 L137.670982,195.148392 C137.670982,200.730341 133.061712,205.341921 127.482096,205.341921 L127.482096,205.339589 Z" id="Path" stroke="none" fill="#4495D4" fill-rule="nonzero"></path>
                            <path d="M74.354448,205.339589 L61.25448,205.339589 C55.79616,205.339589 51.429504,200.730341 51.429504,195.148392 L51.429504,145.643296 C51.429504,140.06368 55.79616,135.452099 61.25448,135.452099 L74.354448,135.452099 C79.812768,135.452099 84.179424,140.06368 84.179424,145.645628 L84.179424,195.148392 C84.179424,200.730341 79.691472,205.341921 74.354448,205.341921 L74.354448,205.339589 Z" id="Path" stroke="none" fill="#7CB5E0" fill-rule="nonzero"></path>
                            <g id="Group" stroke="none" stroke-width="1" fill="none" fill-rule="evenodd" transform="translate(95.428383, 134.727199)">
                                <path d="M22.5926252,0.603603692 L22.5926252,3.27211569 C22.5926252,9.09665631 18.2259692,13.7082501 12.7676492,13.7082501 L18.9537452,13.7082501 C21.658139,13.7125836 24.2529505,12.6398721 26.1648104,10.7271368 C28.0766703,8.81440148 29.1481939,6.21909919 29.142631,3.51470769 L29.142631,0.603603692 L22.5926252,0.603603692 L22.5926252,0.603603692 Z" id="Path" fill="#230545" fill-rule="nonzero"></path>
                                <path d="M23.5629932,3.63600369 L23.5629932,0.724899692 L0.63802751,0.724899692 L0.63802751,3.63600369 C0.632464546,6.34039519 1.70398817,8.93569748 3.61584806,10.8484328 C5.52770796,12.7611681 8.12251946,13.8338796 10.8269132,13.8295461 L13.4954252,13.8295461 C19.0750412,13.7082369 23.5629932,9.21795231 23.5629932,3.63600369 Z" id="Path" fill="#544463" fill-rule="nonzero"></path>
                            </g>
                            <circle id="Oval" stroke="none" fill="#DE5833" fill-rule="nonzero" cx="67.683168" cy="176.219218" r="2.547216"></circle>
                            <circle id="Oval" stroke="none" fill="#DE5833" fill-rule="nonzero" cx="67.683168" cy="185.442379" r="2.547216"></circle>
                            <path d="M74.475744,142.004416 L61.133184,142.004416 C58.82856,142.004416 56.887824,143.823856 56.887824,146.007184 L56.887824,192.601176 C56.887824,194.784504 58.82856,196.603944 61.133184,196.603944 L74.475744,196.603944 C76.780368,196.603944 78.721104,194.784504 78.721104,192.601176 L78.721104,146.007184 C78.721104,143.70256 76.780368,142.004416 74.475744,142.004416 L74.475744,142.004416 Z" id="Path" stroke="none" fill="#4495D4" fill-rule="nonzero"></path>
                            <circle id="Oval" stroke="none" fill="#230545" fill-rule="nonzero" cx="66.591504" cy="177.919695" r="2.33261538"></circle>
                            <circle id="Oval" stroke="none" fill="#230545" fill-rule="nonzero" cx="66.591504" cy="188.838667" r="2.33261538"></circle>
                            <g id="Group" stroke="none" stroke-width="1" fill="none" fill-rule="evenodd" transform="translate(91.727767, 181.379507)">
                                <path d="M31.3876726,6.12490431 L6.64328862,6.12490431 C4.09607262,6.12490431 1.91274462,7.45916031 0.578488615,9.39989631 C1.57390709,12.1622236 4.19227156,14.0057088 7.12847262,14.0114769 L30.9024886,14.0114769 C33.9348886,14.0114769 36.4821046,12.0707409 37.4524726,9.39989631 C36.2395126,7.33786431 33.9348886,6.12490431 31.3876726,6.12490431 L31.3876726,6.12490431 Z" id="Path" fill="#544463" fill-rule="nonzero"></path>
                                <path d="M30.9024886,0.0577712976 L7.12847262,0.0577712976 C5.29420568,0.057152217 3.53492173,0.785697268 2.23811784,2.08293867 C0.941313955,3.38018008 0.213362396,5.13970968 0.214599038,6.97397631 C0.214599038,7.82304831 0.335896615,8.55082431 0.578488615,9.27860031 C1.91274462,7.33786431 4.09607262,6.00360831 6.64328862,6.00360831 L31.3876726,6.00360831 C33.9348886,6.00360831 36.1182166,7.33786431 37.4524726,9.27860031 C37.700604,8.53585588 37.8235752,7.75703852 37.8163606,6.97397631 C37.9376566,3.21380031 34.7839606,0.0577712976 30.9024886,0.0577712976 L30.9024886,0.0577712976 Z" id="Path" fill="#230545" fill-rule="nonzero"></path>
                            </g>
                            <path d="M74.475744,140.791456 L61.133184,140.791456 C58.82856,140.791456 56.887824,142.4896 56.887824,144.551632 L56.887824,148.796992 C56.887824,146.737292 58.82856,145.158112 61.133184,145.158112 L74.59704,145.158112 C76.901664,145.158112 78.8424,146.737292 78.8424,148.796992 L78.8424,144.551632 C78.721104,142.4896 76.780368,140.791456 74.475744,140.791456 Z" id="Path" stroke="none" fill="#357DB6" fill-rule="nonzero"></path>
                            <path d="M46.456368,175.85533 L51.308208,175.85533 L51.308208,160.567369 L46.456368,160.567369 C44.27304,160.567369 42.574896,162.14655 42.574896,164.206249 L42.574896,172.21645 C42.574896,174.157186 44.394336,175.85533 46.456368,175.85533 Z" id="Path" stroke="none" fill="#544463" fill-rule="nonzero"></path>
                            <path d="M50.823024,175.85533 L51.308208,175.85533 L51.308208,160.567369 L50.823024,160.567369 C48.639696,160.567369 46.941552,162.14655 46.941552,164.206249 L46.941552,172.21645 C47.062848,174.157186 48.760992,175.85533 50.823024,175.85533 Z" id="Path" stroke="none" fill="#230545" fill-rule="nonzero"></path>
                            <g id="Group" stroke="none" stroke-width="1" fill="none" fill-rule="evenodd" transform="translate(60.284112, 132.783587)">
                                <path d="M32.022144,27.4222265 C30.8251842,30.3286331 30.7818041,33.5821398 31.900848,36.5194265 C34.326768,43.3166677 41.604528,47.4407317 48.154512,45.7425877 C50.459136,45.1361077 64.89336,41.2523031 77.386848,37.9773111 L77.386848,15.5305532 C59.677632,20.1421338 39.057312,25.6004538 32.022144,27.4222265 Z" id="Path" fill="#357DB6" fill-rule="nonzero"></path>
                                <polygon id="Path" fill="#230545" fill-rule="nonzero" points="91.7884154 13.4358646 121.862826 0.480518769 123.782568 4.93814677 93.7034926 17.8934926"></polygon>
                                <g transform="translate(33.962880, 1.212960)" fill-rule="nonzero">
                                    <path d="M60.284112,0.727776 C56.281344,1.81944 14.312928,12.4981532 10.31016,13.5898172 C6.67128,14.5601852 3.881472,16.9861052 2.183328,20.0208378 C12.73608,17.3499932 53.248944,6.91620462 70.35168,2.54954862 C67.561872,0.60648 63.922992,-0.244924615 60.284112,0.727776 Z" id="Path" fill="#7CB5E0"></path>
                                    <path d="M1.21296,28.9990745 C2.911104,35.7939831 9.824976,39.9180471 16.617552,38.0986071 C20.62032,37.0069431 62.588736,26.3305625 66.591504,25.2365658 C73.38408,23.5384218 77.508144,16.6222172 75.688704,9.82730862 C74.8741652,6.82379771 73.0274936,4.20327502 70.472976,2.42592 C53.248944,6.79490862 12.857376,17.2286972 2.304624,19.8972092 C0.849072,22.6916825 0.363888,25.8453785 1.21296,29.0014071 L1.21296,28.9990745 Z" id="Path" fill="#4495D4"></path>
                                    <ellipse id="Oval" fill="#7CB5E0" cx="11.887008" cy="25.7217498" rx="11.887008" ry="11.8916732"></ellipse>
                                    <ellipse id="Oval" fill="#4495D4" cx="11.887008" cy="25.7217498" rx="8.49072" ry="8.49305262"></ellipse>
                                </g>
                                <ellipse id="Oval" fill="#230545" fill-rule="nonzero" cx="45.728592" cy="26.5731545" rx="4.366656" ry="4.36898862"></ellipse>
                                <ellipse id="Oval" fill="#230545" fill-rule="nonzero" cx="7.399056" cy="26.2069338" rx="6.792576" ry="6.79490862"></ellipse>
                                <polygon id="Path" fill="#230545" fill-rule="nonzero" points="10.674048 24.3874938 43.423968 24.3874938 43.423968 28.7564825 10.674048 28.7564825"></polygon>
                            </g>
                            <ellipse id="Oval" stroke="none" fill="#230545" fill-rule="nonzero" cx="214.08744" cy="182.407647" rx="7.641648" ry="7.64398062"></ellipse>
                            <ellipse id="Oval" stroke="none" fill="#4495D4" fill-rule="nonzero" cx="214.08744" cy="182.407647" rx="4.366656" ry="4.36898862"></ellipse>
                            <circle id="Oval" stroke="none" fill="#FFFFFF" fill-rule="nonzero" cx="214.08744" cy="182.407647" r="2.33261538"></circle>
                            <path d="M131.363568,150.497468 C131.727456,151.34654 131.242272,152.316908 130.3932,152.680796 L129.544128,152.923388 C128.695056,153.287276 127.724688,152.802092 127.3608,151.95302 L127.118208,151.103948 C126.75432,150.254876 127.239504,149.284508 128.088576,148.92062 L128.937648,148.678028 C129.78672,148.31414 130.757088,148.799324 131.120976,149.648396 L131.363568,150.497468 Z M139.247808,147.70766 C139.611696,148.556732 139.126512,149.5271 138.27744,149.890988 L137.428368,150.13358 C136.579296,150.497468 135.608928,150.012284 135.24504,149.163212 L135.002448,148.31414 C134.63856,147.465068 135.123744,146.4947 135.972816,146.12848 L136.821888,145.885888 C137.67096,145.522 138.641328,146.007184 139.005216,146.858588 L139.247808,147.70766 L139.247808,147.70766 Z" id="Shape" stroke="none" fill="#FFFFFF" fill-rule="nonzero"></path>
                            <g id="Group" stroke="none" stroke-width="1" fill="none" fill-rule="evenodd" transform="translate(174.302352, 99.053969)">
                                <polygon id="Path" fill="#230545" fill-rule="nonzero" points="47.184144 26.5684892 43.302672 22.8083132 31.900848 34.2148025 39.663792 34.2148025"></polygon>
                                <path d="M31.900848,34.2148025 L27.534192,38.5814585 C25.836048,40.2819351 23.167536,40.2819351 21.590688,38.5814585 L17.224032,34.2148025 L10.31016,34.2148025 L17.224032,34.2148025 L7.520352,24.5064572 C5.822208,22.8083132 5.822208,20.1398012 7.520352,18.5629532 L21.83328,4.24536 L17.951808,0.361555385 L3.396288,14.9217406 C1.64957753,16.6547708 0.667127582,19.01349 0.667127582,21.4740572 C0.667127582,23.9346245 1.64957753,26.2933437 3.396288,28.0263738 L18.073104,42.7078551 C19.8050253,44.454865 22.163089,45.4376033 24.623088,45.4376033 C27.083087,45.4376033 29.4411507,44.454865 31.173072,42.7078551 L39.785088,34.0935065 L31.900848,34.0935065 L31.900848,34.2148025 L31.900848,34.2148025 Z" id="Path" fill="#230545" fill-rule="nonzero"></path>
                            </g>
                            <path d="M193.103232,136.058579 C194.316192,129.87015 188.979168,124.65209 182.793072,125.746086 C179.396784,126.352566 176.606976,129.142374 175.8792,132.662291 C174.66624,138.848387 180.003264,144.06878 186.18936,142.974784 C189.706944,142.247008 192.496752,139.4572 193.103232,136.058579 Z" id="Path" stroke="none" fill="#230545" fill-rule="nonzero"></path>
                            <ellipse id="Oval" stroke="none" fill="#4495D4" fill-rule="nonzero" cx="184.491216" cy="134.239139" rx="5.45832" ry="5.46065262"></ellipse>
                            <circle id="Oval" stroke="none" fill="#FFFFFF" fill-rule="nonzero" cx="184.491216" cy="134.239139" r="2.33261538"></circle>
                            <g id="Group" stroke="none" stroke-width="1" fill="none" fill-rule="evenodd" transform="translate(33.598992, 0.000000)">
                                <ellipse id="Oval" fill="#230545" fill-rule="nonzero" cx="11.159232" cy="86.1919274" rx="10.91664" ry="10.9189726"></ellipse>
                                <polygon id="Path" fill="#230545" fill-rule="nonzero" points="58.100784 26.1317465 61.375776 26.1317465 61.375776 40.3280437 58.100784 40.3280437"></polygon>
                                <path d="M67.31928,38.2636791 L40.148976,38.2636791 C37.359168,38.2636791 35.17584,40.3257111 35.17584,42.8752597 L35.17584,44.5734037 C35.17584,47.1206197 37.359168,49.1849843 40.148976,49.1849843 L67.31928,49.1849843 C70.109088,49.1849843 72.292416,47.1206197 72.292416,44.5734037 L72.292416,42.8752597 C72.413712,40.3257111 70.109088,38.2636791 67.31928,38.2636791 Z" id="Path" fill="#230545" fill-rule="nonzero"></path>
                                <path d="M47.91192,44.4521077 L47.91192,42.7539637 C47.91192,40.2044151 45.728592,38.1423831 42.938784,38.1423831 L40.148976,38.1423831 C37.359168,38.1423831 35.17584,40.2044151 35.17584,42.7539637 L35.17584,44.4521077 C35.17584,46.9993237 37.359168,49.0636883 40.148976,49.0636883 L42.938784,49.0636883 C45.728592,49.1849843 47.91192,46.9993237 47.91192,44.4521077 Z" id="Path" fill="#544463" fill-rule="nonzero"></path>
                                <path d="M50.580432,44.6946997 L29.71752,44.6946997 C26.806416,44.6946997 24.016608,46.3928437 23.410128,48.9400597 C22.43976,52.4623089 25.593456,55.6136723 29.596224,55.6136723 L50.701728,55.6136723 C54.704496,55.6136723 57.858192,52.4599763 56.887824,48.9423923 C56.281344,46.5164723 53.612832,44.6946997 50.580432,44.6946997 L50.580432,44.6946997 Z" id="Path" fill="#4495D4" fill-rule="nonzero"></path>
                                <path d="M88.54608,48.9423923 C87.9396,46.5164723 85.271088,44.6946997 82.238688,44.6946997 L38.329536,44.6946997 C41.84712,44.6946997 44.636928,47.1206197 44.636928,50.1530197 C44.636928,53.1877523 41.84712,55.6136723 38.329536,55.6136723 L82.359984,55.6136723 C86.362752,55.6136723 89.516448,52.4599763 88.54608,48.9423923 Z" id="Path" fill="#357DB6" fill-rule="nonzero"></path>
                                <polygon id="Path" fill="#544463" fill-rule="nonzero" points="58.22208 112.884045 41.604528 112.884045 35.539728 135.330803 52.15728 135.330803"></polygon>
                                <polygon id="Path" fill="#230545" fill-rule="nonzero" points="68.774832 112.884045 47.426736 112.884045 41.483232 135.330803 62.710032 135.330803"></polygon>
                                <path d="M76.052592,52.4599763 L14.191632,52.4599763 C9.582384,52.4599763 5.822208,56.2224849 5.822208,60.9530289 L5.822208,109.609053 C5.822208,114.218301 9.582384,118.099773 14.191632,118.099773 L76.052592,118.099773 C80.66184,118.099773 84.422016,114.339597 84.422016,109.609053 L84.422016,60.9530289 C84.422016,56.2224849 80.66184,52.4623089 76.052592,52.4623089 L76.052592,52.4599763 Z" id="Path" fill="#7CB5E0" fill-rule="nonzero"></path>
                                <path d="M128.088576,85.3428554 C128.088576,67.1414575 113.533056,52.4599763 95.581248,52.4599763 L16.738848,52.4599763 L17.58792,52.4599763 C34.811952,53.3090483 48.5184,67.6266415 48.5184,85.2192268 L48.5184,109.609053 C48.5094201,114.228012 44.767932,117.970543 40.148976,117.98081 L119.719152,117.98081 C124.3284,117.98081 128.088576,114.218301 128.088576,109.487757 L128.088576,85.3405228 L128.088576,85.3428554 Z" id="Path" fill="#4495D4" fill-rule="nonzero"></path>
                                <g transform="translate(58.034769, 95.637231)" fill-rule="nonzero">
                                    <path d="M50.6464468,22.3435791 C55.0131028,22.3435791 58.6519828,17.8532945 59.1371668,13.6079345 L29.9048308,13.6079345 C29.4196468,17.8532945 25.7807668,22.3435791 21.4141108,22.3435791 L50.6464468,22.3435791 Z" id="Path" fill="#7CB5E0"></path>
                                    <path d="M70.0538068,0.503301231 L56.9538388,0.503301231 L56.9538388,13.6079345 L70.0538068,13.6079345 L70.0538068,0.503301231 Z M29.5409428,0.503301231 L0.0660147692,0.503301231 L0.0660147692,5.60006585 C0.0660147692,9.96672185 3.94748677,13.6079345 8.67803077,13.6079345 L29.4196468,13.6079345 L29.4196468,0.503301231 L29.5409428,0.503301231 L29.5409428,0.503301231 Z" id="Shape" fill="#357DB6"></path>
                                    <polygon id="Path" fill="#4495D4" points="29.5409428 0.503301231 59.0158708 0.503301231 59.0158708 13.6079345 29.5409428 13.6079345"></polygon>
                                </g>
                                <g transform="translate(13.031077, 72.995077)" fill-rule="nonzero" id="Path">
                                    <path d="M17.0503311,0.213513231 L8.80220308,0.213513231 C4.19295508,0.213513231 0.311483077,3.97368923 0.311483077,8.70656585 L0.311483077,18.0486905 C0.311483077,22.6602711 4.07165908,26.5417431 8.80220308,26.5417431 L17.0503311,26.5417431 C21.6595791,26.5417431 25.5410511,22.7815671 25.5410511,18.0510231 L25.5410511,8.70656585 C25.5410511,3.97368923 21.6595791,0.213513231 17.0503311,0.213513231 L17.0503311,0.213513231 Z" fill="#4495D4"></path>
                                    <path d="M17.7781071,17.9273945 C17.7781071,22.5389751 13.8966351,26.4204471 9.04479508,26.4204471 C4.19295508,26.4204471 0.311483077,22.6602711 0.311483077,17.9297271 L0.311483077,8.58526985 C0.311483077,3.97368923 4.19295508,0.0922172308 9.04479508,0.0922172308 C13.8966351,0.0922172308 17.7781071,3.85239323 17.7781071,8.58293723 L17.7781071,17.9273945 Z" fill="#357DB6"></path>
                                </g>
                                <path d="M62.103552,3.92758062 C59.071152,1.378032 55.18968,0.043776 51.065616,0.043776 C46.941552,0.043776 43.06008,1.378032 40.02768,3.92758062 C39.542496,4.41276462 39.4212,5.14054062 39.906384,5.62572462 C40.391568,6.11090862 41.24064,6.11090862 41.725824,5.74702062 C44.3358051,3.63671511 47.587942,2.48052778 50.94432,2.469696 C54.340608,2.469696 57.6156,3.682656 60.162816,5.74702062 C60.405408,5.98961262 60.769296,6.11090862 61.011888,6.11090862 C61.3704023,6.12068462 61.7185706,5.99012151 61.982256,5.74702062 C62.710032,5.01924462 62.588736,4.29146862 62.103552,3.92758062 L62.103552,3.92758062 Z M51.065616,6.35350062 C48.4388447,6.33928512 45.8807437,7.19198546 43.787856,8.77942062 C43.181376,9.26460462 43.181376,9.99238062 43.66656,10.4775646 C44.151744,10.9650812 45.000816,10.9650812 45.486,10.6011932 C47.0800401,9.35470166 49.0421219,8.67141815 51.065616,8.65812462 C53.127648,8.65812462 55.068384,9.38590062 56.645232,10.6011932 C56.887824,10.8437852 57.251712,10.8437852 57.494304,10.8437852 C57.8531419,10.8529296 58.2013525,10.7215135 58.464672,10.4775646 C58.949856,9.99238062 58.949856,9.26460462 58.343376,8.77942062 C56.2504883,7.19198546 53.6923873,6.33928512 51.065616,6.35350062 L51.065616,6.35350062 Z" id="Shape" fill="#9BD96F" fill-rule="nonzero"></path>
                                <g transform="translate(50.415360, 60.666661)" fill-rule="nonzero">
                                    <path d="M66.877872,0.407664 L0.043776,0.407664 C5.3808,6.11090862 7.685424,13.6335932 7.685424,21.8840538 L7.685424,35.8377591 C7.685424,40.3257111 12.415968,44.0882197 17.025216,44.0882197 L66.877872,44.0882197 C71.608416,44.0882197 75.368592,40.3257111 75.368592,35.8377591 L75.368592,8.65812462 C75.489888,4.17017262 71.608416,0.407664 66.877872,0.407664 Z" id="Path" fill="#7CB5E0"></path>
                                    <path d="M29.518704,41.9048917 C27.7786361,41.9117539 26.1079231,41.2232305 24.8779378,39.9923692 C23.6479526,38.7615078 22.9606189,37.090305 22.9686492,35.3502425 L22.9686492,9.14564123 C22.9612427,7.40598202 23.6488519,5.73538111 24.8787691,4.50502594 C26.1086863,3.27467077 27.7790422,2.58646678 29.518704,2.59327381 L78.643584,2.59327381 C80.3836519,2.58646239 82.0543649,3.27498583 83.2843502,4.50584715 C84.5143354,5.73670848 85.2016691,7.40791128 85.1936388,9.14797385 L85.1936388,35.3549077 C85.2010453,37.0945669 84.5134361,38.7651678 83.2835189,39.995523 C82.0536017,41.2258782 80.3832458,41.9140821 78.643584,41.9072751 L29.518704,41.9072751 L29.518704,41.9048917 Z" id="Path" fill="#230545"></path>
                                    <path d="M78.643584,4.89794862 C81.069504,4.89794862 83.01024,6.83868462 83.01024,9.26460462 L83.01024,35.4738711 C83.01024,37.8997911 81.069504,39.8405579 78.643584,39.8405579 L29.518704,39.8405579 C28.3592637,39.8448871 27.2460526,39.3862302 26.4261987,38.5663764 C25.6063448,37.7465225 25.147688,36.6333114 25.1520172,35.4738711 L25.1520172,9.26460462 C25.1520172,6.83868462 27.092784,4.89794862 29.518704,4.89794862 L78.643584,4.89794862 Z M78.643584,0.407593202 L29.518704,0.407593202 C27.1992267,0.398312334 24.9720826,1.31574396 23.3321701,2.9560944 C21.6922577,4.59644484 20.7754209,6.82383391 20.7853115,9.14330862 L20.7853115,35.3549077 C20.7754209,37.6743824 21.6922577,39.9017715 23.3321701,41.5421219 C24.9720826,43.1824723 27.1992267,44.099904 29.518704,44.0906231 L78.643584,44.0906231 C80.9630613,44.099904 83.1902054,43.1824723 84.8301179,41.5421219 C86.4700303,39.9017715 87.3868671,37.6743824 87.376896,35.3549077 L87.376896,9.14330862 C87.498192,4.41276462 83.495424,0.407593202 78.643584,0.407593202 L78.643584,0.407593202 Z" id="Shape" fill="#544463"></path>
                                    <path d="M51.351984,28.9215545 C52.564944,31.4687705 55.476048,33.2905431 58.993632,33.2905431 C62.511216,33.2905431 65.42232,31.4711031 66.63528,28.9215545 L51.351984,28.9215545 Z" id="Path" fill="#E5E5E5"></path>
                                    <circle id="Oval" fill="#82DCFF" cx="42.739968" cy="18.0002492" r="3.274992"></circle>
                                    <circle id="Oval" fill="#82DCFF" cx="75.489888" cy="18.0002492" r="3.274992"></circle>
                                </g>
                                <path d="M22.075872,93.8335754 C20.256432,93.8335754 18.80088,92.3780234 18.80088,90.5585834 L18.80088,81.8229388 C18.80088,80.0034988 20.256432,78.5479468 22.075872,78.5479468 C23.895312,78.5479468 25.350864,80.0034988 25.350864,81.8229388 L25.350864,90.5585834 C25.350864,92.3780234 23.895312,93.835908 22.075872,93.835908 L22.075872,93.8335754 Z M59.798928,22.2479418 C58.343376,22.2479418 57.130416,23.4609018 57.130416,24.9164538 L57.130416,26.7358938 C57.130416,28.1937785 58.343376,29.4067385 59.798928,29.4067385 C61.25448,29.4067385 62.46744,28.1937785 62.46744,26.7382265 L62.46744,24.9187865 C62.588736,23.4609018 61.25448,22.2479418 59.798928,22.2479418 Z M49.488768,18.6090618 L52.76376,18.6090618 L52.76376,39.3576757 L49.488768,39.3576757 L49.488768,18.6090618 Z" id="Shape" fill="#230545" fill-rule="nonzero"></path>
                                <path d="M51.065616,14.6039612 C49.610064,14.6039612 48.397104,15.8169212 48.397104,17.2724732 L48.397104,19.0919132 C48.397104,20.5497978 49.610064,21.7627578 51.065616,21.7627578 C52.521168,21.7627578 53.734128,20.5497978 53.734128,19.0942458 L53.734128,17.2748058 C53.734128,15.8169212 52.521168,14.6039612 51.065616,14.6039612 L51.065616,14.6039612 Z" id="Path" fill="#230545" fill-rule="nonzero"></path>
                            </g>
                        </g>
                    </g>
                </g>
            </g>
        </g>
    </g>
</svg>