<?xml version="1.0" encoding="UTF-8"?>
<svg width="366px" height="200px" viewBox="0 0 366 200" version="1.1" xmlns="http://www.w3.org/2000/svg" xmlns:xlink="http://www.w3.org/1999/xlink">
    <title>qrcodes_bg</title>
    <defs>
        <rect id="path-1" x="0" y="0" width="366" height="200"></rect>
    </defs>
    <g id="页面-1" stroke="none" stroke-width="1" fill="none" fill-rule="evenodd">
        <g id="画板" transform="translate(-1194.000000, -1511.000000)">
            <g id="qrcodes_bg" transform="translate(1194.000000, 1511.000000)">
                <g id="矩形备份-12">
                    <mask id="mask-2" fill="white">
                        <use xlink:href="#path-1"></use>
                    </mask>
                    <use id="矩形备份-4" fill="#FFB652" xlink:href="#path-1"></use>
                    <g id="编组-13" mask="url(#mask-2)">
                        <g transform="translate(40.000000, 5.000000)">
                            <path d="M95.1925333,48.1386256 C95.1925333,48.1386256 90.9365333,51.2596923 89.8016,53.955159 C87.6736,47.1428308 77.7429333,37.4931692 77.7429333,37.4931692 C77.7429333,37.4931692 72.9194667,39.7657641 70.0821333,43.3124308 C65.5424,31.3901744 52.9162667,19.6125128 52.9162667,19.6125128 C52.9162667,19.6125128 36.8853333,34.5139692 32.9130667,46.4334974 C30.3594667,43.5961641 28.0896,41.4681641 28.0896,41.4681641 C28.0896,41.4681641 20.8544,47.1428308 19.2938667,53.2458256 C16.5984,49.273559 11.3493333,47.8548923 11.3493333,47.8548923 C11.3493333,47.8548923 0,55.231959 0,70.8427487 L0,142.649108 C0,149.745169 5.67466667,155.422564 12.768,155.422564 L90.6528,155.422564 C97.7461333,155.422564 103.4208,149.747897 103.4208,142.649108 L103.4208,70.8427487 C103.562667,54.2388923 95.1925333,48.1386256 95.1925333,48.1386256 Z" id="Path" fill="#DE5833" fill-rule="nonzero"></path>
                            <g id="编组" stroke-width="1" fill="none" fill-rule="evenodd" transform="translate(6.329600, 60.123200)">
                                <path d="M-5.68434189e-15,16 L-5.68434189e-15,76.7380308 C-0.00216974409,79.598476 1.13298871,82.3424289 3.1553736,84.3653255 C5.17775848,86.3882221 7.92142414,87.5240748 10.7818698,87.5227084 L79.1616031,87.5227084 C81.874442,87.5335633 84.479289,86.4605438 86.3973152,84.5420053 C88.3153415,82.6234668 89.3876652,80.0183334 89.3760973,77.3054974 L89.3760973,16 L-5.68434189e-15,16 Z" id="Path" fill="#FFFFFF" fill-rule="nonzero"></path>
                                <path d="M78.4523608,1.56319402e-14 L10.2144941,1.56319402e-14 C7.5016552,-0.0108548162 4.89680826,1.06216463 2.97878203,2.98070316 C1.06075579,4.89924169 -0.0115679693,7.50437509 0,10.217211 L0,16.601211 L89.3760941,16.601211 L89.3760941,10.7846777 C89.3760941,4.82354947 84.4107608,1.56319402e-14 78.4523608,1.56319402e-14 Z" id="Path" fill="#FFFFFF" fill-rule="nonzero"></path>
                            </g>
                            <g id="Group" stroke-width="1" fill="none" fill-rule="evenodd" transform="translate(68.996267, 102.299938)">
                                <circle id="Oval" fill="#FFFFFF" fill-rule="nonzero" cx="3.9232" cy="4.44871795" r="3.8304"></circle>
                            </g>
                            <path d="M104.130133,34.0883692 C103.137067,34.0883692 102.285867,33.2371692 102.285867,32.1022359 L102.285867,25.7155077 C102.285867,24.722441 103.137067,23.7293744 104.130133,23.7293744 C105.1232,23.7293744 105.9744,24.5805744 105.9744,25.7155077 L105.9744,32.0995077 C105.9744,33.0953026 105.1232,34.0883692 104.130133,34.0883692 L104.130133,34.0883692 Z M9.64693333,19.8962462 C8.63570579,19.8787571 7.82015577,19.063207 7.80266667,18.0519795 L7.80266667,11.6679795 C7.80266667,10.6721846 8.65386667,9.82098462 9.64693333,9.82098462 C10.64,9.82098462 11.4912,10.6721846 11.4912,11.6652513 L11.4912,18.0519795 C11.4737109,19.063207 10.6581609,19.8787571 9.64693333,19.8962462 L9.64693333,19.8962462 Z" id="Shape" fill="#DE5833" fill-rule="nonzero"></path>
                            <path d="M35.7504,7.12278974 C35.0727279,7.12570177 34.4219308,6.8579729 33.9424838,6.37903809 C33.4630368,5.90010328 33.1946124,5.24959282 33.1967867,4.57191795 L33.1967867,3.29238974 C33.1967867,1.87372308 34.3317333,0.738789744 35.7504,0.738789744 C37.1690667,0.738789744 38.304,1.87372308 38.304,3.29238974 L38.304,4.57191795 C38.304,5.99058462 37.1690667,7.12551795 35.7504,7.12551795 L35.7504,7.12278974 Z M72.9194667,25.1480646 C72.2413199,25.1509578 71.5901056,24.8828554 71.110579,24.4033287 C70.6310523,23.9238021 70.3629499,23.2725878 70.3658431,22.594441 L70.3658431,21.3149128 C70.3658431,19.8962462 71.5008,18.7613128 72.9194667,18.7613128 C74.3381333,18.7613128 75.4730667,19.8962462 75.4730667,21.3149128 L75.4730667,22.594441 C75.3312,23.871241 74.1962667,25.1480646 72.9194667,25.1480646 L72.9194667,25.1480646 Z" id="Shape" fill="#FFB652" fill-rule="nonzero"></path>
                            <path d="M2.69546667,39.0564544 C2.01684467,39.0593531 1.3652125,38.7908771 0.885606107,38.3107583 C0.405999712,37.8306395 0.138219665,37.178721 0.141829897,36.5001026 L0.141829897,35.2233026 C0.141829897,33.8046359 1.2768,32.6697026 2.69546667,32.6697026 C4.11413333,32.6697026 5.24906667,33.8046359 5.24906667,35.2233026 L5.24906667,36.5001026 C5.1072,37.9187692 3.97226667,39.0564544 2.69546667,39.0564544 Z" id="Path" fill="#DE5833" fill-rule="nonzero"></path>
                            <path d="M24.2592,31.5347928 C23.580578,31.5376916 22.9289458,31.2692156 22.4493394,30.7890968 C21.969733,30.308978 21.701953,29.6570595 21.7055632,28.978441 L21.7055632,27.701641 C21.7055632,26.2829744 22.8405333,25.148041 24.2592,25.148041 C25.6778667,25.148041 26.8128,26.2829744 26.8128,27.701641 L26.8128,28.978441 C26.9546667,30.2579692 25.6778667,31.5347928 24.2592,31.5347928 L24.2592,31.5347928 Z M90.7946667,11.0978082 C90.1165199,11.1007014 89.4653056,10.8325989 88.985779,10.3530723 C88.5062523,9.87354566 88.2381499,9.22233142 88.2410431,8.54418462 L88.2410431,5.84871795 C88.2410431,4.43005128 89.376,3.29238974 90.7946667,3.29238974 C92.2133333,3.29238974 93.3482667,4.43005128 93.3482667,5.84871795 L93.3482667,8.40231795 C93.2064,9.82098462 92.0714667,11.0978082 90.7946667,11.0978082 Z" id="Shape" fill="#FFB652" fill-rule="nonzero"></path>
                            <polygon id="Path" fill="#FFFFFF" fill-rule="nonzero" points="21.8474667 138.676841 46.1066667 138.676841 46.1066667 147.617169 21.8474667 147.617169"></polygon>
                            <path d="M84.5525333,60.4325538 C82.2826667,54.4714256 77.1754667,51.3476308 77.1754667,51.3476308 C77.1754667,51.3476308 75.0474667,52.7690256 72.352,55.4672205 C70.5077333,57.3114872 67.3866667,56.7412923 66.2517333,54.329559 C61.2864,43.6868308 53.0581333,36.5907692 53.0581333,36.5907692 C53.0581333,36.5907692 43.4112,46.6660308 38.1621333,55.606359 C36.8853333,57.734359 34.048,58.1626872 32.3456,56.5994256 C31.0688,55.4644923 29.9338667,54.4714256 29.9338667,54.4714256 C29.9338667,54.4714256 26.1034667,57.0250256 23.408,60.4325538 L84.5525333,60.4325538 L84.5525333,60.4325538 Z" id="Path" fill="#FFB652" fill-rule="nonzero"></path>
                            <g id="扫码" stroke-width="1" fill="none" fill-rule="evenodd" transform="translate(15.592369, 69.172103)">
                                <path d="M5.8437275,23.6095701 L5.8437275,10.355908 C5.8437275,7.88569143 7.8864066,5.84301233 10.4991357,5.84301233 L23.800302,5.84301233 C24.8691457,5.81926022 25.8429811,5.27296236 26.4367832,4.3941353 C27.0305853,3.51530824 27.0305853,2.3514562 26.4367832,1.47262914 C25.8667332,0.570049966 24.8691457,-1.14491749e-15 23.800302,0.0237521109 L10.5228878,0.0237521109 C4.7273796,-0.0475041523 0.0244672777,4.63165613 0.000715166719,10.4034122 L0.000715166719,23.7758347 C0.000715166719,24.7971743 0.594517244,25.8185138 1.44959219,26.3885638 C2.32841925,26.9823659 3.4922713,26.9823659 4.37109836,26.3885638 C5.24992542,25.6760013 5.8437275,24.7971742 5.8437275,23.6095701 Z M47.5998888,5.81926022 L60.9010551,5.81926022 C63.3712717,5.81926022 65.4377028,7.86193932 65.4377028,10.4984205 L65.4377028,23.7758347 C65.4377028,24.7971743 66.0077528,25.8185138 66.910332,26.3885638 C67.789159,26.9823659 68.9530111,26.9823659 69.8318381,26.3885638 C70.7344173,25.8185138 71.3044673,24.8446784 71.2807152,23.7520826 L71.2807152,10.4984205 C71.2807152,4.65540818 66.6015549,0 60.7585426,0 L47.4573763,0 C46.3885326,0.0237521109 45.4146972,0.570049966 44.8208951,1.44887703 C44.227093,2.32770409 44.227093,3.49155613 44.8208951,4.37038319 C45.5572096,5.22545814 46.4360367,5.81926022 47.5998888,5.81926022 L47.5998888,5.81926022 Z M65.4139508,47.5516694 L65.4139508,60.8290836 C65.4139508,63.2993003 63.3712717,65.3419794 60.7347905,65.3419794 L47.4573763,65.3419794 C46.3885326,65.3657315 45.4146972,65.9120293 44.8208951,66.7908564 C44.227093,67.6696835 44.227093,68.8335355 44.8208951,69.7123626 C45.3909451,70.6149417 46.3647805,71.1849917 47.4573763,71.1612396 L60.7585426,71.1612396 C66.6015549,71.1612396 71.2807152,66.4820793 71.2807152,60.6628191 L71.2807152,47.3854049 C71.2569631,46.3165611 70.7106652,45.3427258 69.8318381,44.7726758 C68.9530111,44.1788737 67.789159,44.1788737 66.910332,44.7726758 C66.0077528,45.5089903 65.4139508,46.3878174 65.4139508,47.5516694 L65.4139508,47.5516694 Z M23.6577895,65.3419794 L10.3803753,65.3419794 C7.91015864,65.3419794 5.8437275,63.2993003 5.8437275,60.6865711 L5.8437275,47.409157 C5.81997539,46.3403132 5.27367753,45.3664779 4.37109836,44.7964278 C3.4922713,44.2026258 2.32841925,44.2026258 1.44959219,44.7964278 C0.547013022,45.3664778 -0.0230369442,46.3403132 0.000715166719,47.409157 L0.000715166719,60.6865711 C0.000715166719,66.5295835 4.67987545,71.1849917 10.5228878,71.1849917 L23.824054,71.1849917 C24.8928978,71.1612396 25.8667331,70.6149417 26.4605352,69.7361146 C27.0543373,68.8572875 27.0543373,67.6934355 26.4605352,66.8146084 C25.7004686,65.9357814 24.8216415,65.3419793 23.6577895,65.3419794 Z M19.2636542,38.502126 L55.0342906,38.502126 C56.1031344,38.4783738 57.0769697,37.932076 57.6707718,37.0532489 C58.2645739,36.1744219 58.2645739,35.0105698 57.6707718,34.1317428 C57.1007219,33.2291636 56.1031344,32.6591136 55.0342906,32.6828657 L19.2636542,32.6828657 C18.1948104,32.7066178 17.2209751,33.2529157 16.6271731,34.1317428 C16.033371,35.0105698 16.033371,36.1744219 16.6271731,37.0532489 C17.2209751,38.0745885 18.0998022,38.502126 19.2636542,38.502126 Z" id="形状" fill="#FEAA19" fill-rule="nonzero"></path>
                            </g>
                        </g>
                    </g>
                </g>
            </g>
        </g>
    </g>
</svg>