<?xml version="1.0" encoding="UTF-8"?>
<svg width="191px" height="92px" viewBox="0 0 191 92" version="1.1" xmlns="http://www.w3.org/2000/svg" xmlns:xlink="http://www.w3.org/1999/xlink">
    <title>tana_icon</title>
    <defs>
        <linearGradient x1="50%" y1="100%" x2="50%" y2="8.34557487%" id="linearGradient-1">
            <stop stop-color="#FFFFFF" stop-opacity="0" offset="0%"></stop>
            <stop stop-color="#FE8A34" offset="100%"></stop>
        </linearGradient>
    </defs>
    <g id="页面-1" stroke="none" stroke-width="1" fill="none" fill-rule="evenodd">
        <g id="画板" transform="translate(-864.000000, -2072.000000)">
            <g id="tana_icon" transform="translate(866.000000, 2074.000000)">
                <path d="M187.344464,90 L-1.42108547e-13,90 L-1.42108547e-13,30.6503913 C14.5769129,47.9681402 28.3833973,52.2374589 41.4194532,43.4583475 C60.9735371,30.2896804 69.0479089,17.2909368 92.4661237,24.1043071 C115.884339,30.9176773 132.714355,39.4663159 142.933783,29.0799737 C153.153211,18.6936315 167.952194,6.82961988 175.961655,2.85950275 C181.301296,0.212758001 185.095566,-0.596624178 187.344464,0.431356217 L187.344464,90 Z" id="路径-5备份" fill="url(#linearGradient-1)" opacity="0.323916481"></path>
                <path d="M-1.42759426e-13,30.6503913 C14.5769129,47.9681402 28.3833973,52.2374589 41.4194532,43.4583475 C60.9735371,30.2896804 69.0479089,17.2909368 92.4661237,24.1043071 C115.884339,30.9176773 132.714355,39.4663159 142.933783,29.0799737 C153.153211,18.6936315 167.952194,6.82961988 175.961655,2.85950275 C181.301296,0.212758001 185.095566,-0.596624178 187.344464,0.431356217" id="路径-5" stroke="#FE8A34" stroke-width="3" stroke-linecap="round"></path>
            </g>
        </g>
    </g>
</svg>